<svg id="Layer_1" data-name="Layer 1" xmlns="http://www.w3.org/2000/svg" viewBox="0 0 2000 2000"><defs><style>.cls-1{fill:#0f2f56;}.cls-2{fill:#02b297;}.cls-3,.cls-4{font-size:202.77px;fill:#fff;font-family:Impact;}.cls-3{letter-spacing:0.05em;}.cls-4{letter-spacing:0.03em;}</style></defs><rect class="cls-1" x="1" width="1998" height="2000"/><path class="cls-2" d="M788.35,1057.55a184.27,184.27,0,0,1-55,126.82c-73.46,72.6-192.55,72.6-266,0a184.39,184.39,0,0,1,0-262.91A188.49,188.49,0,0,1,595.9,867.07v55.56a132.18,132.18,0,0,0-88.85,38.1,129.3,129.3,0,0,0,0,184.37c51.51,50.91,135,50.91,186.53,0a129.18,129.18,0,0,0,38.55-87.55Z"/><ellipse class="cls-2" cx="600.32" cy="1052.92" rx="64" ry="63.25"/><polygon class="cls-2" points="760.72 894.38 727.39 1034.13 694.01 960.31 619.32 927.31 760.72 894.38 760.72 894.38"/><text class="cls-3" transform="translate(822.02 1035.89) scale(1.07 1)">TRACTIV</text><text class="cls-4" transform="translate(837.93 1224.61) scale(1.07 1)">LEADS</text></svg>